<?xml version="1.0" standalone="no"?>
<!DOCTYPE svg PUBLIC "-//W3C//DTD SVG 20010904//EN"
 "http://www.w3.org/TR/2001/REC-SVG-20010904/DTD/svg10.dtd">
<svg version="1.0" xmlns="http://www.w3.org/2000/svg"
 width="1601.000000pt" height="1001.000000pt" viewBox="0 0 1601.000000 1001.000000"
 preserveAspectRatio="xMidYMid meet">

<g transform="translate(0.000000,1001.000000) scale(0.100000,-0.100000)"
fill="#000000" stroke="none">
<path d="M1611 9989 c-94 -18 -182 -85 -229 -174 l-27 -50 -5 -550 -5 -550
-667 -3 -668 -2 0 -3660 0 -3660 668 -2 667 -3 5 -550 5 -550 27 -50 c49 -93
134 -155 237 -175 74 -14 2708 -14 2782 0 103 20 188 82 237 175 l27 50 3 713
c2 551 5 714 15 717 6 3 678 6 1492 8 l1480 3 75 22 c275 83 479 281 569 550
12 35 26 71 30 80 5 9 14 78 20 152 22 266 94 527 221 795 l47 101 1669 238
c918 131 1681 240 1697 243 l27 6 0 -602 0 -601 -547 -2 -548 -3 -49 -25 c-65
-33 -124 -94 -155 -160 l-26 -55 0 -915 0 -915 26 -55 c31 -66 90 -127 155
-160 l49 -25 1430 0 1430 0 50 27 c93 49 155 134 175 237 14 73 14 1709 0
1782 -20 103 -82 188 -175 237 l-50 27 -550 5 -550 5 0 645 0 645 810 117
c446 64 822 117 838 117 l27 1 0 -1425 0 -1425 660 0 660 0 0 1540 0 1539 46
32 c26 17 72 58 103 89 284 293 235 777 -103 1009 l-46 32 0 1539 0 1540 -660
0 -660 0 0 -1425 0 -1425 -27 1 c-16 0 -392 53 -838 117 l-810 117 0 645 0
645 550 5 550 5 50 27 c93 49 155 134 175 237 14 73 14 1709 0 1782 -20 103
-82 188 -175 237 l-50 27 -1430 0 -1430 0 -49 -25 c-65 -33 -124 -94 -155
-160 l-26 -55 0 -915 0 -915 26 -55 c31 -66 90 -127 155 -160 l49 -25 548 -3
547 -2 0 -601 0 -601 -27 5 c-16 3 -779 112 -1697 243 l-1669 238 -47 101
c-127 268 -199 529 -221 795 -6 74 -15 144 -21 154 -6 11 -19 47 -30 80 -86
264 -294 465 -568 548 l-75 22 -1480 3 c-814 2 -1486 5 -1492 8 -10 3 -13 166
-15 717 l-3 713 -27 50 c-49 93 -134 155 -237 175 -67 12 -2726 12 -2790 -1z"/>
</g>
</svg>
